<?xml version="1.0" encoding="utf-8" ?><svg xmlns="http://www.w3.org/2000/svg" xmlns:xlink="http://www.w3.org/1999/xlink" width="1024" height="1024" viewBox="0 0 1024 1024"><path fill="#E9E9E8" d="M538.537 172.298C664.779 188.363 759.287 293.88 742.198 423.784C734.863 479.539 707.18 525.394 668.451 565.101C650.374 583.787 629.569 604.252 613.322 624.2C574.423 671.424 545.56 726.083 528.497 784.838C521.123 810.471 516.378 836.708 514.066 863.255C513.616 868.431 512.363 877.957 512.498 882.893L511.498 882.977C511.627 876.689 510.771 868.185 510.168 861.839C507.609 835.434 502.677 809.312 495.431 783.792C479.504 727.629 452.421 675.252 415.801 629.788C385.628 592.402 347.846 560.946 320.014 521.882C300.016 493.815 287.288 458.143 282.392 424.21C274.164 367.065 289.165 309.006 324.044 262.999C362.966 211.053 418.716 181.898 482.267 172.802L481.603 173.925C461.232 180.122 448.23 184.205 429.764 194.352C309.464 260.459 292.068 430.182 421.943 498.427C439.331 507.564 451.987 512.123 470.779 517.383C457.444 486.212 450.765 456.914 454.173 422.612C454.617 418.143 456.442 407.396 457.908 403.247C460.184 421.457 463.685 434.427 475.872 448.056C507.285 483.188 556.318 459.786 563.655 417.429C564.712 411.326 564.974 406.556 565.171 400.511C572.759 428.935 571.532 460.603 563.225 488.761C560.243 498.873 556.389 508.149 552.36 517.883C615.516 501.141 670.624 461.1 687.723 395.01C699.394 349.898 690.019 301.639 665.831 262.163C636.392 214.115 592.182 186.363 538.242 172.686L538.537 172.298Z"/><path fill="#E9E9E8" d="M534.008 137.411C648.749 143.524 756.122 195.847 831.643 282.447C893.601 351.834 933.363 438.184 945.804 530.371C953.541 586.098 951.051 624.449 940.261 678.953C938.082 638.28 921.564 603.747 891.269 576.48C860.592 549.066 820.214 535.078 779.153 537.64C763.925 538.481 746.282 541.63 731.301 544.334C741.532 527.187 750.581 512.126 758.617 493.701C780.31 443.799 784.814 388.106 771.423 335.366C754.467 268.442 708.694 211.261 649.676 176.269C619.513 158.283 586.193 146.22 551.507 140.729C548.971 140.316 537.277 138.311 535.296 138.521L534.008 137.411Z"/><path fill="#E9E9E8" d="M82.9909 682.051C78.2625 660.041 75.0019 626.663 74.4772 603.623C72.0046 477.587 120.087 355.806 207.994 265.454C269.472 201.792 349.451 159.128 436.565 143.524C452.471 140.661 473.891 137.869 490.114 137.493L489.501 138.553C485.347 138.269 469.916 140.988 465.142 141.934C422.892 149.917 383.041 167.501 348.665 193.33C293.641 234.87 257.179 293.616 247.752 362.231C240.624 415.946 251.007 470.528 277.361 517.874C282.571 527.37 287.836 536.391 294.4 545.028C273.07 541.15 254.256 537.224 232.504 537.504C190.645 537.659 150.632 554.756 121.587 584.899C93.9304 613.43 82.393 642.632 82.9909 682.051Z"/><path fill="#E72134" d="M773.437 568.224C776.099 568.239 778.762 568.296 781.422 568.394C820.72 569.914 859.997 587.145 886.575 616.213C907.716 639.336 921.992 671.567 924.975 702.732C926.28 716.369 925.819 728.73 925.218 742.334C922.542 726.099 919.874 713.612 913.579 698.268C897.264 658.508 865.646 631.714 826.624 615.746C806.49 607.891 785.041 603.954 763.429 604.148C723.603 604.615 685.029 618.138 653.63 642.643C639.783 653.35 630.708 662.582 618.592 674.951C631.201 655.204 637.335 643.058 654.416 625.385C689.089 589.512 722.723 569.75 773.437 568.224Z"/><path fill="#393A3A" d="M535.296 138.521C532.826 138.666 525.787 137.997 523.443 137.336C526.675 136.816 530.787 136.885 534.008 137.411L535.296 138.521Z"/><path fill="#6F7074" d="M482.267 172.802C485.103 172.106 490.091 171.415 492.908 171.849C489.248 172.536 485.257 173.37 481.603 173.925L482.267 172.802Z"/><path fill="#393A3A" d="M490.114 137.493C492.654 137.196 494.612 136.779 497.115 137.251L496.898 137.709C494.472 138.267 491.991 138.55 489.501 138.553L490.114 137.493Z"/><path fill="#393A3A" d="M528.55 171.837C531.497 171.486 535.904 171.006 538.537 172.298L538.242 172.686C534.499 172.754 532.254 172.37 528.55 171.837Z"/><path fill="#6F7074" d="M511.498 882.977L512.498 882.893C512.536 884.867 512.734 888.649 511.95 890.318C511.241 888.155 511.476 885.331 511.498 882.977Z"/></svg>